<svg xmlns="http://www.w3.org/2000/svg" id="Calque_2" data-name="Calque 2" viewBox="0 0 112.3 112.3"><defs><style>.cls-2{stroke-width:0;fill:#fff}</style></defs><g id="Calque_1-2" data-name="Calque 1"><circle cx="56.15" cy="56.15" r="56.15" fill="red" stroke-width="0"/><path d="m81.07 57.07 8.6-14.9-4.07-7H68.39l10-17.26a43.92 43.92 0 0 0-8.63-3.86l-13.61 23.4 4.11 7.06h17.21l-8.6 14.91 4.07 7.07h26.32c.74-3.09 1.15-6.25 1.21-9.42h-19.4zm-29 36.09h8.19l8.62-14.9 9.38 16.25a44.88 44.88 0 0 0 7.65-5.56l-13-22.48h-8.15l-8.62 14.91-8.6-14.87h-8.16l-13 22.48c2.34 2.12 4.91 3.99 7.65 5.56l9.39-16.26 8.65 14.87z" class="cls-2"/><path d="m43.45 59.42-8.59-14.91h17.2l4.09-7.06-13.57-23.47c-3.01.97-5.9 2.27-8.63 3.86l10 17.26H26.72l-4.08 7 8.6 14.92H11.87c.06 3.2.47 6.38 1.21 9.49h26.3l4.07-7.09z" class="cls-2"/></g></svg>