<svg xmlns="http://www.w3.org/2000/svg" width="32" height="32" fill="none"><path fill="#1AE19D" d="M19.35 15.765a2.777 2.777 0 0 0 4.17-2.401 2.777 2.777 0 0 0-2.78-2.775 2.76 2.76 0 0 0-2.777 2.703H14.32l-1.517-2.622-1.517 2.622h-3.73A2.776 2.776 0 0 0 4.78 10.59C3.27 10.59 2 11.832 2 13.363a2.777 2.777 0 0 0 4.24 2.36l1.821 3.15-1.535 2.653 3.068-.003 1.766 3.054a2.771 2.771 0 0 0-1.33 2.367 2.777 2.777 0 0 0 2.779 2.775 2.777 2.777 0 0 0 2.78-2.774 2.771 2.771 0 0 0-1.342-2.375l1.77-3.055 3.06-.004-1.528-2.639 1.801-3.107zm-4.069 1.797-.758 1.309.017.03h-.035l-.756 1.304-.947 1.634-.94-1.624-.757-1.31h-.04l.02-.033-.756-1.308-.958-1.657H12.8l.004-.007.005.007h3.432l-.96 1.655h.001z"/><path fill="#1AE19D" d="M19.079.031 6.44 0l6.31 10.59L19.08.03zm.001 21.379L25.218 32l6.157-10.558-12.297-.031z"/></svg>