<?xml version="1.0"?>
<svg width="27" height="26" xmlns="http://www.w3.org/2000/svg" xmlns:svg="http://www.w3.org/2000/svg">
 <defs>
  <clipPath id="a">
   <path d="m0,0l136,0l0,30l-136,0l0,-30z" fill="#fff" id="svg_1"/>
  </clipPath>
 </defs>
 <g class="layer">
  <title>Layer 1</title>
  <g clip-path="url(#a)" fill="#fff" id="svg_2">
   <path d="m15.98,4.09a10.7,10.7 0 0 0 0.51,-3.26l-5.34,0c0,2.96 -2.39,5.36 -5.34,5.36l0,5.35c4.75,0 8.78,-3.11 10.16,-7.42l0,5.33a5.34,5.34 0 0 1 5.34,5.35l5.34,0c0,-5.91 -4.78,-10.7 -10.67,-10.7l0,-0.01z" id="svg_4"/>
   <path d="m10.64,14.79a10.7,10.7 0 0 0 0.51,-3.26l-5.34,0c0,2.96 -2.39,5.36 -5.34,5.36l0,5.35c4.75,0 8.78,-3.11 10.16,-7.42l0,5.33a5.34,5.34 0 0 1 5.34,5.35l5.34,0c0,-5.91 -4.78,-10.7 -10.67,-10.7l0,-0.01z" id="svg_7" transform="rotate(-180 10.887 18.5132)"/>
  </g>
 </g>
</svg>