<svg xmlns="http://www.w3.org/2000/svg" width="136" height="30" fill="none" viewBox="0 0 136 30"><g fill="#fff" clip-path="url(#a)"><path d="M40.933 7.626q.631 0 1.242.146.608.146 1.112.445c.337.195.612.48.82.844q.313.548.275 1.39h4.623q-.041-1.684-.674-2.95a5.5 5.5 0 0 0-1.764-2.066 8.3 8.3 0 0 0-2.606-1.2c-.98-.267-2.048-.4-3.196-.4q-3.026.001-4.982 1.222c-1.303.813-1.955 2.066-1.955 3.75q-.04 1.687.692 2.72a5.3 5.3 0 0 0 1.91 1.644q1.177.613 2.5.991 1.323.382 2.5.716 1.178.338 1.91.777.737.442.736 1.245.042.337-.208.715-.252.38-.843.653-.591.275-1.595.276-1.305-.001-1.977-.422-.671-.42-.944-.947-.274-.527-.315-.969a14 14 0 0 1-.04-.484h-4.667q0 1.64.612 2.782c.407.76.944 1.382 1.617 1.875a8.3 8.3 0 0 0 2.124 1.138q1.111.4 2.123.546 1.01.147 1.595.147 2.268-.001 3.91-.569 1.641-.566 2.544-1.666.904-1.095.904-2.738c0-1.093-.252-1.933-.758-2.59a5.54 5.54 0 0 0-1.932-1.582 14 14 0 0 0-2.544-.969q-1.366-.38-2.545-.716-1.175-.334-1.932-.822c-.505-.324-.758-.777-.758-1.368q0-.587.567-1.076.567-.485 1.91-.484zm18.408 9.02-3.993-12.22h-5.213l6.768 17.402-.842 1.853c-.363.813-.709 1.39-1.028 1.729q-.486.505-1.01.59-.527.086-1.113.085h-2.815v3.92h3.573q1.389-.002 2.353-.21a4.3 4.3 0 0 0 1.725-.8q.758-.591 1.449-1.75.693-1.158 1.534-3.097l8.155-19.722h-5.212zm28.137-7.67a6.8 6.8 0 0 0-.86-2.253q-.63-1.032-1.808-1.666-1.178-.632-3.027-.631-1.684 0-2.775.507-1.09.506-1.702 1.16c-.408.435-.692.835-.86 1.2q-.252.546-.293.59h-.084l-.842-3.457h-4.37v17.362h5.212v-8.301q0-1.18.23-2.213c.156-.689.475-1.258.967-1.707q.738-.674 2.247-.675c1.006 0 1.786.218 2.247.653q.692.653.905 1.667.21 1.011.208 2.15v8.426h4.915v-8.385q0-.886-.04-2.045a15.6 15.6 0 0 0-.274-2.382zm9.69-1.053h3.909V4.426h-3.91V0h-4.033q.001 1.475-.19 2.382-.193.907-.59 1.329-.4.42-1.01.568a6 6 0 0 1-1.41.147v3.497h2.478V16.9q0 2.699 1.258 3.79c.843.729 2.017 1.098 3.533 1.098h3.994v-3.92h-4.034V7.924zm15.571-2.843q-1.323.651-2.061 1.643c-.492.663-.843 1.347-1.051 2.067a9 9 0 0 0-.155.6l-.328-4.964h-4.791v17.362h5.084v-7.203q0-1.348.398-2.236a3.2 3.2 0 0 1 1.179-1.39q.78-.507 2.017-.694 1.239-.188 2.921-.19h.545v-5.65h-.505q-1.935 0-3.258.653zm18.053-.654v3.288h-.084a12 12 0 0 1-.377-.653q-.293-.525-.904-1.16c-.408-.422-.962-.777-1.662-1.075-.701-.293-1.583-.444-2.647-.444q-2.353.001-3.763 1.115-1.408 1.119-2.061 3.137c-.434 1.347-.651 2.924-.651 4.72q-.001 2.693.629 4.679.632 1.98 2.061 3.075c.953.729 2.212 1.098 3.781 1.098q1.556 0 2.606-.4t1.68-.947q.632-.548.944-1.03.313-.488.359-.654h.084l.798 2.613H136V4.426h-5.213zm-.293 11.252q-.252 1.053-1.01 1.666c-.506.409-1.259.613-2.27.613q-1.515 0-2.291-.63-.777-.634-1.029-1.667a9.5 9.5 0 0 1-.252-2.253q0-1.22.252-2.253t1.029-1.667q.776-.632 2.291-.63c1.011 0 1.764.195 2.27.59q.758.593 1.01 1.645.253 1.054.253 2.315c0 .84-.084 1.573-.253 2.275zM10.678 22.063v-5.328a5.345 5.345 0 0 1-5.341-5.354H0c0 5.91 4.778 10.7 10.673 10.705a10.7 10.7 0 0 0-.505 3.261h5.341c0-2.955 2.39-5.354 5.341-5.354v-5.355c-4.756 0-8.78 3.115-10.163 7.421z"/><path d="M15.513 3.933a10.7 10.7 0 0 0 .506-3.262h-5.341c0 2.955-2.39 5.355-5.341 5.355v5.355c4.756 0 8.78-3.116 10.163-7.422v5.329a5.345 5.345 0 0 1 5.341 5.354h5.341c0-5.91-4.778-10.7-10.673-10.705z"/></g><defs><clipPath id="a"><path fill="#fff" d="M0 0h136v30H0z"/></clipPath></defs></svg>